<?xml version='1.0' encoding='utf-8'?>
<svg xmlns="http://www.w3.org/2000/svg" version="1.1" id="Contours" x="0px" y="0px" width="639.600342" height="401.982483" viewBox="0.000000 0.000000 639.600342 401.982483" stroke="black" fill="none" stroke-linecap="round" stroke-linejoin="round"> <desc> </desc> <path d="M503.1 200.5 C525.6 202.5 547.1 213.3 562.2 230.0 C533.8 212.7 500.4 194.7 469.0 205.6 C496.0 210.7 521.7 222.4 543.2 239.5 C529.7 242.1 516.2 244.7 502.8 247.3 C538.2 252.4 570.0 278.0 582.5 311.6 C584.5 316.9 586.1 322.6 589.7 327.0 C593.3 331.4 599.7 334.2 604.9 331.7 C591.0 337.3 577.1 342.8 563.2 348.3 C568.4 341.7 575.8 336.8 584.0 334.7 C584.5 309.0 568.4 285.1 547.3 270.5 C526.2 255.9 500.7 249.1 475.5 244.3 C492.4 287.3 499.8 333.9 497.2 380.0 C517.6 375.7 536.9 366.4 552.9 353.0 C544.5 360.5 536.2 368.1 527.8 375.7 C546.4 376.9 564.5 384.5 578.4 396.9 C560.4 386.8 540.0 381.0 519.4 380.0 C513.4 379.8 507.2 379.9 501.9 382.8 C496.7 385.6 492.9 391.9 494.6 397.6 C497.5 398.4 500.4 399.2 503.2 400.0 C490.9 400.0 478.5 399.9 466.1 399.9 C470.0 395.7 476.8 394.7 481.8 397.4 C482.5 393.1 483.3 388.7 484.0 384.4 C460.9 390.7 437.5 395.9 413.9 399.9 C435.8 390.0 459.5 384.1 483.5 382.6 C489.5 338.8 483.2 293.4 465.5 253.0 C462.0 245.0 457.1 236.3 448.6 234.0 C440.1 231.6 429.6 241.5 434.7 248.7 C436.1 250.6 438.3 252.0 439.5 254.0 C440.8 256.1 440.3 259.6 437.9 259.9 C432.8 253.1 430.1 244.5 430.4 236.0 C454.1 218.4 466.6 186.8 461.4 157.8 C460.5 152.5 457.1 146.0 451.8 146.8 C448.9 147.3 446.9 149.9 445.3 152.3 C434.1 169.1 426.7 188.3 423.7 208.2 C427.3 206.6 430.9 204.9 434.4 203.3 C438.9 201.2 444.2 196.0 440.9 192.4 C431.6 182.1 439.3 162.3 453.2 161.1 C452.5 166.3 451.9 171.5 451.2 176.7 C449.4 173.7 447.6 170.6 445.8 167.6 C437.9 170.7 443.4 182.3 445.2 190.6 C447.5 201.1 439.6 212.8 429.0 214.6 C431.6 216.3 434.2 218.1 436.9 219.9 C432.0 218.5 427.1 217.2 422.2 215.8 C418.6 222.2 417.1 229.7 417.9 237.0 C420.2 234.8 422.4 232.7 424.6 230.6 C419.4 240.2 428.7 250.7 434.3 260.1 C442.3 273.5 442.9 289.7 443.4 305.2 C443.8 321.0 444.3 336.7 444.7 352.4 C441.9 326.3 439.0 300.2 436.1 274.1 C435.6 269.7 432.4 263.7 428.5 265.9 C427.5 255.3 422.7 245.3 415.1 237.8 C406.5 268.0 397.9 298.1 389.4 328.2 C396.7 328.8 401.5 320.7 403.4 313.6 C405.4 306.5 407.1 298.1 413.7 294.8 C406.5 310.4 403.2 327.8 404.2 344.9 C401.3 339.9 399.7 334.0 399.9 328.1 C395.2 331.4 388.9 332.2 383.5 330.4 C389.9 315.2 394.4 299.1 396.7 282.8 C383.9 308.1 367.5 331.6 348.2 352.4 C363.3 348.0 377.8 341.6 391.3 333.5 C372.6 351.3 345.5 358.4 319.8 356.0 C294.2 353.5 270.1 342.1 249.2 327.0 C247.4 333.7 245.5 340.3 243.7 347.0 C242.3 337.4 242.6 327.6 244.8 318.2 C260.5 333.0 280.1 343.7 301.0 349.1 C285.2 333.2 272.3 314.4 263.3 293.9 C276.2 305.4 283.5 321.9 294.7 335.1 C305.9 348.3 324.7 358.4 340.2 350.6 C346.2 347.7 350.7 342.5 354.9 337.3 C403.9 277.0 432.3 200.4 434.6 122.7 C438.9 120.3 439.5 114.1 437.3 109.7 C435.1 105.4 430.9 102.4 426.8 99.7 C425.9 104.1 426.5 108.7 428.4 112.8 C424.3 110.3 423.7 104.6 422.2 100.1 C416.3 82.3 390.2 72.8 392.7 54.3 C394.2 43.1 380.2 35.8 369.1 37.3 C357.9 38.9 348.0 45.4 336.8 47.0 C326.2 48.5 315.6 45.3 305.3 42.6 C294.9 39.9 283.8 37.6 273.6 40.9 C263.4 44.1 254.8 54.7 257.5 65.1 C259.9 74.3 252.9 84.8 243.5 86.2 C247.2 74.2 251.0 62.2 254.7 50.2 C235.9 61.0 219.9 76.5 208.5 95.0 C222.8 57.1 265.5 32.2 305.6 38.5 C316.7 40.2 327.9 44.1 339.0 42.1 C346.2 40.9 352.7 37.3 359.7 35.4 C374.6 31.3 391.5 35.5 402.8 46.1 C398.0 61.7 409.7 77.2 421.2 88.8 C432.8 100.3 446.1 113.3 445.4 129.6 C444.0 126.5 440.7 124.4 437.3 124.5 C438.3 133.6 439.3 142.7 440.3 151.8 C447.7 147.8 450.9 138.5 450.6 130.0 C450.4 121.6 447.4 113.5 445.5 105.2 C441.3 87.0 442.4 67.6 436.6 49.8 C430.8 31.9 414.2 15.1 395.7 18.5 C377.6 21.8 359.5 25.1 341.4 28.5 C327.2 31.1 312.2 33.6 298.8 28.3 C281.3 21.5 261.5 19.9 243.8 26.0 C226.2 32.1 211.0 46.4 205.9 64.4 C204.1 70.7 203.6 77.3 202.8 83.8 C200.4 104.9 195.8 125.8 189.1 146.0 C184.7 129.9 180.2 113.8 175.8 97.7 C168.2 106.0 165.8 118.8 169.9 129.3 C174.1 139.9 184.5 147.6 195.7 148.6 C199.9 134.3 207.8 121.1 218.3 110.6 C201.3 137.1 211.3 171.8 221.8 201.4 C236.7 243.5 251.6 285.6 266.4 327.7 C259.2 325.9 256.9 316.9 255.6 309.5 C252.3 291.4 246.3 273.7 237.7 257.4 C235.9 254.1 234.0 250.8 230.7 249.1 C227.5 247.4 222.6 248.2 221.3 251.6 C222.1 248.0 222.9 244.5 223.8 241.0 C225.2 243.4 228.5 244.6 231.2 243.4 C232.3 235.3 226.6 227.9 220.4 222.5 C214.2 217.1 207.0 212.4 203.2 205.1 C199.5 197.8 201.5 186.8 209.3 184.5 C206.5 180.0 203.6 175.5 200.7 171.0 C198.4 176.9 196.0 182.9 193.7 188.9 C187.5 184.3 186.8 173.5 193.1 169.0 C199.3 164.4 210.1 169.7 209.5 177.4 C208.2 169.7 206.5 161.3 200.6 156.3 C194.7 151.2 183.1 152.7 181.7 160.3 C176.3 188.2 187.1 218.7 208.9 237.0 C185.2 243.9 167.5 264.6 158.9 287.6 C150.2 310.7 149.7 335.9 151.2 360.5 C151.6 366.4 152.2 372.6 155.9 377.2 C160.0 382.3 166.9 384.1 173.4 385.6 C193.1 390.2 212.8 394.7 232.5 399.2 C206.2 397.3 180.2 392.9 154.7 386.1 C154.1 390.6 154.8 395.2 156.9 399.2 C161.5 397.4 166.9 397.7 171.3 399.8 C162.8 399.8 154.3 399.7 145.9 399.7 C148.6 395.7 145.3 389.8 140.8 388.2 C136.3 386.5 131.3 387.6 126.6 388.8 C110.1 393.0 93.6 397.2 77.1 401.4 C80.3 389.3 92.7 381.6 105.1 379.9 C117.4 378.2 129.9 381.4 141.9 384.6 C145.3 373.2 132.9 363.8 122.1 358.9 C102.8 350.1 82.7 343.3 62.0 338.6 C72.1 332.8 73.3 316.2 64.2 309.0 C62.7 305.4 67.2 302.1 71.1 301.4 C74.9 300.6 79.7 300.2 81.4 296.7 C91.8 276.1 114.6 265.5 135.8 256.3 C106.1 252.7 75.4 248.8 49.9 233.2 C55.5 227.4 52.4 215.9 44.6 213.8 C73.7 192.1 103.7 169.9 138.8 160.3 C151.3 156.8 164.3 155.1 176.7 151.5 C127.8 145.7 76.7 164.2 42.7 199.9 C63.8 168.2 101.8 148.7 139.8 150.0 C139.5 143.7 142.2 137.3 147.0 133.0 C148.3 137.7 147.8 142.8 145.7 147.1 C156.6 146.6 167.4 146.1 178.2 145.6 C169.0 137.9 163.2 126.0 162.8 114.0 C151.1 133.0 125.5 137.0 103.2 137.5 C70.7 138.3 38.2 135.8 6.2 130.1 C21.8 124.3 37.0 117.3 51.5 109.1 C42.4 109.6 33.3 110.1 24.1 110.6 C31.7 87.2 39.2 63.8 46.7 40.3 C37.5 25.3 16.6 18.8 0.6 26.0 C0.2 19.7 0.0 13.0 3.4 7.7 C6.7 2.4 15.1 0.0 19.3 4.7 C38.7 26.8 59.6 47.6 82.0 66.8 C75.1 56.5 68.2 46.1 61.3 35.8 C73.3 40.3 85.5 44.8 98.3 45.7 C111.0 46.6 124.7 43.4 133.8 34.4 C98.8 23.9 63.7 13.4 28.7 2.9 C42.3 2.4 55.9 2.0 69.5 1.5 C77.9 1.2 87.7 1.5 92.9 8.2 C96.7 12.9 99.3 21.1 105.1 19.8 C102.1 13.7 99.0 7.6 95.9 1.6 C130.6 0.6 165.3 0.6 200.0 1.6 C171.0 19.3 150.0 47.3 124.7 70.1 C95.3 96.5 59.7 116.0 21.5 126.3 C47.8 132.5 75.1 134.7 102.1 132.6 C93.1 129.8 84.2 127.1 75.2 124.3 C104.0 120.1 128.8 101.3 148.0 79.4 C167.3 57.6 182.2 32.3 200.4 9.6 C203.2 6.2 206.4 2.6 210.8 2.0 C188.6 30.4 170.7 62.1 157.8 95.8 C183.8 72.3 204.3 42.7 217.2 10.1 C220.2 2.3 230.5 1.1 238.8 1.1 C298.8 1.0 358.8 0.9 418.7 0.8 C428.3 0.8 440.5 2.8 442.4 12.2 C448.2 41.1 464.4 67.8 487.2 86.5 C479.1 57.1 467.5 28.7 452.8 1.9 C454.6 1.9 456.4 1.8 458.2 1.7 C484.1 27.9 513.8 50.3 546.0 68.1 C526.9 71.4 507.7 74.7 488.6 77.9 C489.3 81.7 489.9 85.5 490.6 89.3 C538.1 86.5 583.8 69.7 625.7 47.3 C573.9 56.3 518.3 39.1 480.5 2.6 C507.4 0.4 534.4 0.1 561.3 1.7 C552.3 13.0 543.4 24.4 534.4 35.7 C548.0 25.9 560.3 14.3 570.9 1.3 C573.4 8.2 566.2 14.5 560.2 18.6 C554.1 22.7 547.6 30.2 551.5 36.4 C554.0 40.3 559.3 41.1 563.9 41.4 C589.2 43.2 614.4 45.0 639.6 46.8 C611.6 60.2 582.7 71.8 553.2 81.3 C559.6 95.3 585.9 82.6 594.5 95.3 C559.1 115.7 515.3 121.2 476.0 110.0 C469.7 121.9 462.5 133.3 454.3 143.9 C463.6 148.9 474.9 144.2 484.8 140.6 C519.9 127.6 559.7 128.1 594.6 141.8 C569.4 144.5 544.5 149.0 520.1 155.5 C546.2 158.6 571.2 170.5 590.1 188.8 C572.2 178.0 553.7 167.6 533.4 162.4 C513.1 157.3 490.7 157.7 472.3 167.7 C471.0 171.6 476.6 173.9 480.7 174.0 C509.2 174.7 540.7 168.2 563.9 184.7 C575.8 193.2 589.8 198.7 604.3 200.5 C570.6 198.0 536.8 198.0 503.1 200.5 M172.4 250.0 C169.9 249.8 167.4 250.5 165.0 251.3 C149.0 256.1 132.8 261.1 118.0 269.0 C103.3 277.0 89.8 288.3 82.1 303.2 C77.3 312.3 74.9 322.5 73.5 332.7 C73.2 334.8 73.5 337.7 75.6 338.1 C98.8 342.5 121.1 352.1 140.3 365.8 C138.8 345.2 138.8 324.2 143.3 303.9 C147.9 283.7 157.3 264.2 172.4 250.0 M51.9 44.0 C47.6 46.2 45.2 51.5 46.3 56.3 C47.3 60.7 44.9 65.2 42.9 69.3 C39.8 75.5 37.5 82.1 35.8 88.8 C34.9 92.2 34.3 96.0 35.9 99.2 C38.0 103.4 43.3 104.8 48.0 105.1 C62.0 105.8 75.3 99.6 87.9 93.4 C93.0 90.9 98.1 88.4 103.1 85.9 C84.1 74.6 66.8 60.4 51.9 44.0 M156.3 193.7 C161.8 191.8 167.5 190.1 172.0 186.3 C176.5 182.5 179.3 176.0 176.8 170.7 C134.1 178.5 94.6 202.9 68.6 237.6 C73.2 240.0 77.8 242.3 82.3 244.6 C84.3 245.6 87.2 246.5 88.5 244.6 C105.3 221.4 129.3 203.4 156.3 193.7 M578.0 140.9 C542.5 128.9 503.4 137.0 468.3 149.9 C466.9 150.4 465.4 151.0 464.6 152.2 C463.4 154.3 464.6 156.8 465.8 158.8 C478.7 153.8 492.5 152.0 506.2 150.2 C530.1 147.1 554.1 144.0 578.0 140.9 M533.6 87.3 C529.0 88.0 524.7 89.5 520.7 91.7 C528.3 95.8 536.7 98.2 545.3 98.9 C546.0 100.7 543.5 101.9 541.6 102.2 C526.8 104.2 512.1 106.2 497.3 108.1 C512.6 114.2 529.9 114.8 545.6 109.8 C550.5 108.3 555.3 106.2 560.1 104.4 C569.3 101.0 578.9 98.5 588.6 97.1 C583.6 95.9 578.7 94.7 573.8 93.5 C569.6 92.5 565.4 91.5 561.2 90.5 C552.2 88.3 542.8 86.0 533.6 87.3 M477.3 89.4 C476.0 82.1 470.2 75.8 463.0 74.0 C467.3 82.5 466.6 92.8 463.9 102.0 C461.1 111.2 456.6 119.7 453.2 128.7 C451.9 132.2 451.0 136.7 453.9 139.1 C458.8 131.2 463.8 123.4 468.7 115.5 C473.7 107.6 478.9 98.6 477.3 89.4 M131.7 250.0 C131.6 250.7 131.5 251.4 131.4 252.1 C135.0 255.8 141.0 256.2 145.9 254.5 C150.8 252.9 154.9 249.4 158.8 246.1 C168.2 238.1 177.6 230.1 187.0 222.1 C188.5 220.8 190.2 219.4 190.5 217.4 C187.4 216.1 184.0 217.8 181.0 219.4 C164.6 228.4 147.6 237.9 136.8 253.2 C136.1 252.1 135.4 251.1 134.7 250.0 C133.7 250.0 132.7 250.0 131.7 250.0 M490.1 395.8 C496.4 347.3 490.5 297.3 473.2 251.5 C470.4 244.1 466.0 235.8 458.2 234.4 C469.7 246.1 475.8 262.0 480.1 277.7 C488.8 309.0 491.9 341.9 489.2 374.2 C488.6 381.4 487.7 389.0 490.1 395.8 M90.0 209.8 C80.8 209.1 71.4 212.8 65.1 219.6 C61.7 223.2 59.3 227.7 56.0 231.4 C58.0 234.4 62.5 234.6 65.7 233.0 C68.9 231.4 71.1 228.4 73.4 225.7 C78.3 219.8 83.9 214.4 90.0 209.8 M92.3 198.3 C90.5 196.6 87.6 197.2 85.1 198.0 C78.8 199.9 72.4 201.8 66.0 203.8 C61.5 205.1 56.5 207.0 55.0 211.4 C65.4 208.3 76.0 206.0 86.8 204.3 C95.3 203.0 105.1 201.3 109.6 193.9 C107.2 191.7 103.4 193.9 101.0 196.0 C98.5 198.2 94.8 200.5 92.3 198.3 M153.0 289.1 C149.6 294.2 148.2 300.4 147.1 306.5 C142.1 335.1 142.8 364.8 149.2 393.1 C151.7 386.9 150.2 379.8 149.0 373.1 C143.9 345.3 145.3 316.3 153.0 289.1 M56.1 6.3 C66.4 11.1 77.3 14.5 88.5 16.5 C90.0 16.8 92.0 16.7 92.3 15.3 C89.3 14.3 89.0 10.1 86.9 7.8 C84.7 5.4 81.0 5.3 77.7 5.5 C70.5 5.7 63.3 6.0 56.1 6.3 M3.1 16.9 C4.5 19.3 8.3 19.9 10.4 18.1 C14.7 14.3 21.5 22.9 26.6 20.3 C22.4 13.7 16.4 8.2 9.5 4.5 C8.7 9.3 7.4 14.7 3.1 16.9 M220.1 211.6 C221.5 210.4 221.0 208.1 220.3 206.3 C218.0 200.4 215.7 194.5 213.4 188.6 C212.3 191.6 209.0 193.2 206.7 195.4 C204.3 197.6 203.1 202.1 205.8 203.7 C211.6 203.4 217.3 206.6 220.1 211.6 M172.6 251.8 C180.3 247.6 187.9 243.4 195.5 239.3 C198.1 237.9 200.6 236.5 203.2 235.1 C199.5 232.8 194.7 234.8 190.9 236.7 C183.7 240.4 176.1 244.6 172.6 251.8 M203.8 156.4 C205.8 149.8 207.2 143.0 207.6 136.1 C207.7 134.9 207.6 133.5 206.6 133.0 C204.1 136.6 201.6 140.2 200.6 144.4 C199.7 148.7 200.5 153.6 203.8 156.4 M402.2 71.0 C400.7 63.2 399.2 55.4 397.7 47.6 C396.8 47.1 395.8 46.6 394.8 46.1 C396.2 54.7 398.6 63.1 402.2 71.0 M197.2 171.5 C198.0 170.9 198.7 169.4 197.7 169.1 C195.9 168.2 193.7 169.7 193.1 171.6 C192.4 173.5 193.0 175.6 193.8 177.4 C195.5 175.8 196.6 173.7 197.2 171.5 M544.4 36.4 C544.7 37.6 546.2 38.1 547.1 37.5 C547.5 35.1 547.0 31.7 544.6 31.9 C544.4 33.5 544.3 35.0 544.1 36.5 " fill="#000000" stroke="none"/> <path d="M215.7 261.8 C216.0 263.7 216.2 265.6 216.4 267.4 C215.7 268.8 213.4 267.8 213.1 266.3 C212.9 264.8 214.0 263.4 214.9 262.2 " fill="#000000" stroke="none"/> <path d="M213.1 371.1 C215.6 373.9 218.1 376.6 220.6 379.4 C216.5 379.0 213.1 375.2 213.1 371.1 " fill="#000000" stroke="none"/> <path d="M441.8 247.3 C439.2 243.8 438.4 239.1 439.5 234.9 C444.1 236.4 444.1 243.1 441.8 247.3 " fill="#000000" stroke="none"/> <path d="M332.8 152.1 C330.7 156.0 325.0 157.6 321.2 155.2 C320.3 154.6 319.4 153.7 319.2 152.6 C323.7 153.4 328.4 153.2 332.8 152.1 " fill="#000000" stroke="none"/> <path d="M338.2 169.1 C337.5 172.0 336.9 174.8 336.3 177.7 C335.8 180.6 334.1 183.2 331.9 184.9 C329.7 179.1 332.6 171.8 338.2 169.1 " fill="#000000" stroke="none"/> <path d="M424.9 286.7 C424.3 280.6 425.6 274.2 428.6 268.8 C430.3 274.9 428.9 281.8 424.9 286.7 " fill="#000000" stroke="none"/> <path d="M356.5 84.0 C360.8 79.4 367.0 76.5 373.3 76.1 C367.7 78.7 362.1 81.4 356.5 84.0 " fill="#000000" stroke="none"/> <path d="M96.8 288.9 C95.9 296.4 93.7 303.9 90.3 310.7 C89.7 302.9 92.1 295.0 96.8 288.9 " fill="#000000" stroke="none"/> <path d="M398.5 79.2 C394.2 78.4 389.8 77.6 385.5 76.8 C381.8 76.1 378.1 75.5 374.4 75.9 C382.1 71.9 392.2 73.3 398.5 79.2 " fill="#000000" stroke="none"/> <path d="M384.1 223.1 C379.3 216.3 374.5 209.5 369.7 202.7 C378.0 205.8 384.0 214.3 384.1 223.1 " fill="#000000" stroke="none"/> <path d="M101.8 329.4 C100.4 328.6 98.9 327.3 99.5 325.9 C107.0 329.5 114.4 333.6 121.5 338.0 C114.6 335.8 108.0 332.9 101.8 329.4 " fill="#000000" stroke="none"/> <path d="M212.6 242.7 C211.1 247.2 208.1 251.1 204.1 253.8 C206.5 248.7 208.9 243.6 211.2 238.5 C213.6 238.5 215.9 240.2 216.6 242.5 C217.3 244.8 216.4 247.4 214.5 248.8 C214.8 246.7 214.1 244.3 212.6 242.7 " fill="#000000" stroke="none"/> <path d="M266.1 229.4 C267.6 221.9 271.2 214.7 276.3 209.0 C277.7 207.4 279.7 205.8 281.8 206.4 C277.5 214.7 272.2 222.4 266.1 229.4 " fill="#000000" stroke="none"/> <path d="M380.2 267.5 C380.2 270.4 379.0 274.4 376.1 274.0 C376.5 262.4 376.9 250.8 377.2 239.2 C379.7 239.8 380.3 243.1 380.3 245.6 C380.3 252.9 380.2 260.2 380.2 267.5 " fill="#000000" stroke="none"/> <path d="M236.4 298.6 C235.1 295.7 234.3 292.6 234.1 289.4 C235.2 289.2 236.2 289.0 237.3 288.8 C239.4 297.4 242.2 305.7 245.7 313.8 C244.4 314.6 242.8 313.2 241.9 312.0 C238.5 307.3 235.1 302.7 231.7 298.1 C233.1 298.9 234.8 299.1 236.4 298.6 " fill="#000000" stroke="none"/> <path d="M312.4 331.1 C310.4 328.4 312.4 323.6 309.5 321.8 C317.5 317.4 327.4 319.4 336.3 321.5 C338.5 322.0 340.7 322.5 342.8 323.0 C344.1 325.6 342.5 329.0 339.9 330.5 C337.4 332.0 334.3 332.2 331.4 332.3 C327.3 332.6 323.2 332.8 319.1 333.0 C316.7 333.1 313.8 333.0 312.4 331.1 " fill="#000000" stroke="none"/> <path d="M254.3 86.0 C262.8 81.4 272.9 79.7 282.5 81.2 C288.2 82.1 293.9 84.2 298.0 88.2 C288.4 82.8 276.6 81.6 266.1 84.8 C262.2 86.0 258.0 87.7 254.3 86.0 " fill="#000000" stroke="none"/> <path d="M274.9 268.5 C274.4 261.5 273.9 254.6 273.4 247.6 C273.2 244.7 274.4 241.8 276.5 239.8 C278.0 255.6 279.6 271.4 281.2 287.2 C276.1 282.7 275.3 275.2 274.9 268.5 " fill="#000000" stroke="none"/> <path d="M246.6 90.4 C242.0 93.6 237.3 96.8 232.7 100.0 C229.3 102.4 225.8 105.0 224.7 108.9 C223.5 113.0 224.8 118.7 221.0 120.6 C224.6 115.8 218.2 107.4 222.8 103.6 C230.0 97.8 237.5 91.8 246.6 90.4 " fill="#000000" stroke="none"/> <path d="M375.0 102.9 C364.4 106.4 354.8 112.8 347.4 121.1 C345.9 122.7 343.5 124.5 341.9 123.1 C347.6 108.8 362.4 98.8 377.8 98.7 C379.4 100.0 377.0 102.2 375.0 102.9 " fill="#000000" stroke="none"/> <path d="M343.0 64.5 C344.0 69.9 342.1 75.9 338.1 79.8 C334.1 83.6 328.1 85.3 322.6 84.2 C317.1 83.0 312.2 78.7 310.9 73.2 C309.6 68.0 311.6 62.4 314.8 58.1 C317.2 54.9 320.6 52.1 324.6 51.9 C327.1 51.8 329.5 52.6 331.8 53.5 C334.6 54.5 337.6 55.6 339.7 57.8 C341.4 59.6 342.5 62.0 343.0 64.5 " fill="#000000" stroke="none"/> <path d="M404.5 49.5 C405.4 47.7 408.1 48.6 409.6 49.8 C421.0 58.2 430.6 69.1 437.7 81.3 C436.7 82.6 434.8 81.1 434.0 79.7 C426.8 67.5 416.6 57.0 404.5 49.5 " fill="#000000" stroke="none"/> <path d="M276.8 93.6 C280.0 94.5 283.1 95.5 286.2 96.4 C288.1 97.0 290.0 97.6 291.7 98.7 C293.8 100.0 295.4 102.1 297.0 104.1 C301.5 109.8 306.1 115.6 308.6 122.5 C303.4 121.9 299.9 116.9 296.5 112.8 C289.2 104.0 279.0 97.4 267.9 94.4 C269.9 91.9 273.8 92.6 276.8 93.6 " fill="#000000" stroke="none"/> <path d="M118.8 303.3 C106.2 312.9 93.6 322.4 80.9 332.0 C79.5 333.0 77.7 334.1 76.2 333.2 C86.3 318.6 101.7 307.8 118.8 303.3 " fill="#000000" stroke="none"/> <path d="M526.8 305.6 C541.2 311.4 554.7 319.3 566.7 329.0 C568.1 330.1 569.6 331.5 569.3 333.2 C551.0 323.2 532.7 313.1 514.3 303.1 C518.6 302.5 522.8 304.0 526.8 305.6 " fill="#000000" stroke="none"/> <path d="M315.5 172.0 C313.9 172.5 312.7 174.3 312.9 176.0 C312.2 175.1 311.6 174.2 310.9 173.3 C310.1 169.9 315.6 168.0 318.3 170.2 C321.0 172.5 321.3 176.4 321.5 179.9 C321.8 186.8 322.2 193.6 322.5 200.4 C324.8 203.8 330.2 200.6 334.1 201.7 C337.7 202.7 339.1 207.7 337.3 211.0 C335.5 214.2 331.5 215.8 327.7 215.7 C324.0 215.7 320.4 214.2 317.0 212.8 C313.6 211.4 312.5 207.0 313.1 203.4 C313.6 199.9 315.4 196.6 316.3 193.0 C317.4 188.2 316.5 182.9 313.9 178.6 C316.9 178.3 318.0 173.6 315.5 172.0 " fill="#000000" stroke="none"/> <path d="M414.1 173.3 C399.2 166.6 381.8 165.5 366.1 170.3 C361.3 171.7 356.3 173.8 351.3 173.0 C346.3 172.3 341.6 167.2 343.3 162.5 C348.5 167.7 356.9 169.3 363.7 166.5 C374.9 161.8 387.6 162.4 399.7 163.5 C402.9 163.9 406.2 164.2 409.0 165.7 C411.9 167.2 414.2 170.1 414.1 173.3 " fill="#000000" stroke="none"/> <path d="M378.4 43.8 C380.6 52.0 382.3 60.4 383.5 68.9 C367.6 68.0 353.3 77.8 340.4 87.2 C349.7 75.1 364.2 67.1 379.4 65.6 C376.9 57.4 375.1 49.1 374.0 40.6 C375.4 38.9 377.8 41.6 378.4 43.8 " fill="#000000" stroke="none"/> <path d="M187.3 350.4 C187.0 353.1 184.8 355.2 182.8 357.0 C178.9 360.5 174.6 363.9 169.5 364.6 C164.4 365.4 158.4 362.2 158.0 357.0 C163.2 363.4 174.0 362.5 180.3 357.1 C184.0 354.0 186.7 348.7 184.7 344.3 C180.4 334.9 177.3 324.9 175.5 314.7 C179.1 324.9 182.7 335.0 186.3 345.2 C186.9 346.9 187.5 348.7 187.3 350.4 " fill="#000000" stroke="none"/> <path d="M303.0 169.0 C299.2 172.6 293.1 170.7 288.1 169.1 C269.9 163.5 249.1 166.8 233.5 177.8 C231.3 179.4 228.8 181.2 226.1 180.8 C230.8 173.5 238.4 168.6 246.6 165.9 C254.8 163.2 263.5 162.6 272.1 162.7 C276.2 162.7 280.4 162.8 284.4 163.7 C290.0 165.0 296.6 167.5 300.9 163.8 C302.1 162.8 304.0 163.7 304.4 165.1 C304.8 166.5 304.1 168.0 303.0 169.0 " fill="#000000" stroke="none"/> <path d="M278.6 42.1 C277.1 51.9 275.6 61.7 274.0 71.5 C290.2 72.7 305.9 79.4 318.0 90.2 C323.0 94.6 331.7 94.1 336.2 89.1 C335.8 93.7 330.4 96.6 325.8 96.1 C321.2 95.6 317.2 92.8 313.4 90.2 C300.6 81.3 285.7 73.2 270.3 75.2 C270.4 64.8 272.1 54.4 275.3 44.5 C275.8 43.0 277.3 41.1 278.6 42.1 " fill="#000000" stroke="none"/> <path d="M203.6 348.9 C202.6 351.7 204.0 354.7 205.3 357.3 C207.5 361.8 209.8 366.3 212.0 370.8 C204.7 364.7 200.5 355.1 200.8 345.6 C201.2 335.0 201.5 324.4 201.9 313.8 C202.3 302.4 202.7 290.9 201.5 279.5 C201.3 278.3 199.8 277.9 198.6 277.6 C195.6 277.0 192.7 275.0 191.7 272.1 C190.6 269.2 191.7 265.5 194.4 264.1 C193.2 267.4 194.5 271.4 197.3 273.4 C200.1 275.4 204.3 275.3 207.0 273.1 C203.8 282.3 204.0 292.6 207.7 301.6 C208.5 303.7 207.5 306.0 206.7 308.1 C202.2 321.1 208.3 336.0 203.6 348.9 " fill="#000000" stroke="none"/> <path d="M334.6 219.1 C342.2 217.1 350.8 212.6 357.3 217.1 C358.9 218.2 360.1 219.7 361.3 221.2 C363.0 223.3 364.8 225.4 365.7 227.9 C366.9 231.2 366.7 234.9 366.4 238.4 C365.1 256.8 363.2 275.1 360.7 293.4 C360.2 297.5 359.4 301.9 356.5 304.8 C351.3 309.9 342.8 307.6 335.7 306.5 C330.0 305.5 324.2 305.5 318.6 306.5 C313.8 307.2 309.0 308.7 304.3 307.8 C295.4 306.2 289.8 297.0 288.4 288.1 C287.0 279.1 288.5 270.0 288.0 261.0 C287.6 253.2 285.5 245.4 285.9 237.6 C286.3 229.8 290.0 221.3 297.2 218.4 C304.8 215.3 313.1 219.1 321.2 220.0 C325.7 220.6 330.2 220.3 334.6 219.1 M291.4 277.9 C291.6 283.3 291.7 288.8 293.7 293.8 C295.7 298.9 299.9 303.4 305.3 304.2 C308.8 304.7 312.3 303.6 315.7 302.9 C323.9 301.2 332.5 301.5 340.5 303.8 C344.6 304.9 349.6 306.4 352.7 303.5 C354.0 302.2 354.6 300.3 355.2 298.5 C358.1 288.2 360.0 277.5 360.7 266.8 C355.5 265.8 351.5 271.6 350.3 276.8 C349.1 282.0 348.8 288.0 344.9 291.6 C341.4 294.7 336.3 294.9 331.6 295.0 C325.1 295.0 318.6 295.0 312.1 295.1 C309.1 295.1 305.3 294.5 304.6 291.6 C303.3 285.5 301.6 279.5 299.7 273.6 C299.0 271.6 298.3 269.6 296.8 268.1 C295.3 266.7 292.8 266.1 291.1 267.3 C291.2 270.8 291.3 274.4 291.4 277.9 M360.8 226.8 C359.5 225.8 357.9 224.9 357.6 223.3 C356.8 219.7 352.8 217.7 349.2 217.7 C345.5 217.8 342.1 219.4 338.6 220.5 C328.6 223.9 317.4 223.7 307.5 220.1 C301.5 217.9 295.5 223.2 291.7 228.4 C289.8 231.1 287.9 234.1 288.0 237.3 C288.1 240.6 291.1 244.0 294.3 243.2 C296.7 242.7 298.1 240.3 299.6 238.4 C305.6 231.5 316.0 231.2 325.2 231.4 C332.1 231.6 339.1 231.9 345.7 233.9 C352.3 236.0 358.5 240.1 361.6 246.3 C364.1 239.8 366.1 231.3 360.8 226.8 M310.7 282.2 C308.3 278.1 308.9 272.1 304.8 269.6 C304.4 276.1 305.9 282.7 309.2 288.3 C310.8 291.2 314.8 291.3 318.1 291.1 C323.7 290.8 329.3 290.5 334.9 290.1 C336.8 290.0 338.6 289.9 340.3 289.1 C343.3 287.7 345.0 283.9 344.1 280.7 C342.5 286.4 335.2 287.8 329.3 288.2 C322.4 288.5 314.1 288.2 310.7 282.2 " fill="#000000" stroke="none"/> <path d="M340.7 385.7 C339.5 394.6 330.2 401.5 321.4 400.0 C317.6 385.9 302.3 375.7 287.8 377.8 C291.9 384.6 295.5 391.8 298.5 399.3 C295.8 402.0 292.4 396.8 291.4 393.1 C287.0 376.5 269.3 367.8 253.5 361.1 C258.5 374.2 256.2 389.9 247.6 401.1 C250.0 392.6 252.4 383.9 252.2 375.0 C251.9 366.1 248.6 356.9 241.4 351.6 C227.5 341.5 216.6 327.2 211.6 310.8 C236.3 355.0 288.3 382.3 338.8 377.5 C348.9 376.6 359.0 374.4 368.3 370.2 C375.0 367.1 381.1 363.0 387.1 358.8 C398.3 351.1 409.2 343.1 419.9 334.7 C420.0 344.0 406.6 346.5 400.8 353.8 C397.5 358.0 396.8 363.6 396.3 369.0 C395.4 379.3 394.4 389.6 393.4 399.9 C391.1 401.3 389.5 397.3 389.8 394.6 C391.2 382.8 392.6 371.0 393.9 359.2 C376.6 368.8 357.5 380.6 353.5 400.0 C352.5 401.2 350.3 400.2 349.9 398.7 C349.5 397.2 350.3 395.6 351.0 394.3 C353.8 389.1 356.5 384.0 359.3 378.8 C345.2 380.4 331.2 382.0 317.1 383.6 C319.0 387.2 320.9 390.7 322.7 394.3 C329.3 393.2 335.6 390.2 340.7 385.7 " fill="#000000" stroke="none"/> <path d="M336.3 98.6 C324.6 106.0 326.4 123.3 329.6 136.7 C330.0 138.5 330.5 140.4 332.0 141.4 C333.5 142.5 336.2 141.8 336.2 139.9 C333.9 133.2 331.6 126.3 332.1 119.2 C332.6 112.2 336.6 104.8 343.3 102.6 C336.8 112.6 335.5 125.8 339.9 136.8 C352.0 136.5 363.1 130.7 374.2 125.9 C385.2 121.1 397.7 117.1 409.2 120.7 C420.7 124.3 429.5 138.4 423.4 148.8 C404.4 153.1 384.6 157.5 365.5 153.5 C364.9 150.0 364.3 146.4 363.8 142.9 C357.9 144.3 352.0 145.7 346.2 147.1 C346.0 153.1 353.6 157.7 358.8 154.8 C356.4 160.3 348.2 158.6 343.0 155.6 C337.0 152.0 330.5 147.5 323.7 149.0 C320.2 149.7 317.1 151.9 313.7 152.9 C310.3 154.0 305.7 153.3 304.3 150.0 C305.8 155.8 298.5 160.3 292.5 159.9 C286.6 159.4 281.0 156.2 275.0 155.8 C269.4 155.5 263.9 157.8 258.2 158.7 C252.6 159.6 245.9 158.6 242.9 153.7 C240.6 149.8 235.3 148.7 230.9 149.9 C226.6 151.1 223.0 154.1 219.5 157.0 C224.1 149.4 220.5 138.8 225.2 131.3 C230.9 122.2 244.2 123.4 254.7 125.6 C274.1 129.7 293.4 133.8 312.8 138.0 C315.8 126.6 314.4 114.1 308.8 103.7 C317.3 108.6 321.9 119.5 319.3 129.0 C318.5 132.0 317.1 134.9 317.5 138.0 C317.9 141.1 321.5 143.8 324.1 142.1 C323.8 133.3 325.7 124.5 324.8 115.8 C323.9 107.1 319.3 97.8 310.9 95.4 C317.5 101.6 328.3 103.0 336.3 98.6 M419.9 146.9 C420.7 139.5 419.9 130.7 413.6 126.7 C402.6 119.6 388.1 123.6 376.1 129.0 C364.2 134.5 351.7 141.2 338.8 138.9 C337.9 140.2 338.7 142.1 340.1 143.0 C341.4 143.9 343.1 143.9 344.7 143.9 C356.1 143.5 366.8 138.1 377.8 135.1 C388.9 132.0 402.1 131.8 410.2 139.9 C413.1 142.8 415.8 146.9 419.9 146.9 M235.0 128.5 C231.3 129.3 228.6 132.6 227.6 136.2 C226.5 139.8 226.7 143.6 226.9 147.4 C234.2 140.4 244.4 136.5 254.4 137.0 C257.3 137.1 260.2 137.6 263.1 138.0 C274.6 139.9 286.1 141.8 297.7 143.6 C300.8 144.1 303.9 144.6 307.0 144.0 C310.0 143.3 313.0 141.3 313.8 138.3 C306.5 139.4 299.1 139.4 291.9 138.2 C283.4 136.8 275.2 133.8 266.8 131.4 C256.5 128.3 245.5 126.2 235.0 128.5 M375.4 151.1 C380.8 152.5 386.5 153.9 392.1 153.3 C397.7 152.7 403.4 149.7 405.7 144.5 C406.2 143.5 406.5 142.3 406.2 141.1 C405.5 138.5 402.4 137.7 399.7 137.4 C390.6 136.4 381.2 137.1 372.3 139.6 C374.8 142.8 375.9 147.0 375.4 151.1 M253.1 156.4 C256.6 156.6 260.0 154.6 263.5 154.8 C264.9 154.9 266.3 155.4 267.6 155.1 C269.0 154.8 270.3 153.4 269.7 152.1 C268.4 149.2 268.9 145.6 270.9 143.2 C261.5 140.4 251.4 139.5 241.6 140.5 C242.3 144.0 243.1 147.5 244.8 150.5 C246.6 153.6 249.6 156.1 253.1 156.4 M279.1 153.9 C284.1 155.3 289.2 156.3 294.4 156.9 C295.8 157.1 297.3 157.2 298.4 156.3 C299.2 155.7 299.6 154.7 299.9 153.7 C300.7 151.2 301.5 148.8 302.3 146.3 C295.0 145.6 287.7 145.1 280.3 145.0 C281.9 147.8 281.4 151.7 279.1 153.9 " fill="#000000" stroke="none"/> </svg>